<svg id="Layer_1" data-name="Layer 1" xmlns="http://www.w3.org/2000/svg" xmlns:xlink="http://www.w3.org/1999/xlink" viewBox="0 0 517.17 619.1"><defs><style>.cls-1{fill:none;stroke:#1d1d1b;stroke-miterlimit:10;}.cls-2{fill:url(#Orange_Yellow);}.cls-3{fill:url(#Orange_Yellow-2);}.cls-4{fill:#1d1d1b;}</style><linearGradient id="Orange_Yellow" x1="305.9" y1="325.39" x2="305.9" y2="325.39" gradientUnits="userSpaceOnUse"><stop offset="0" stop-color="#ffef26"/><stop offset="0.02" stop-color="#ffea21"/><stop offset="0.1" stop-color="#fed70f"/><stop offset="0.19" stop-color="#fdcc04"/><stop offset="0.28" stop-color="#fdc800"/><stop offset="0.67" stop-color="#f18f34"/><stop offset="0.89" stop-color="#e95f32"/><stop offset="1" stop-color="#e3312d"/></linearGradient><linearGradient id="Orange_Yellow-2" x1="155.81" y1="438.6" x2="517.08" y2="438.6" xlink:href="#Orange_Yellow"/></defs><line class="cls-1" x1="514.87" y1="512.12" x2="252.88" y2="250.12"/><path class="cls-1" d="M455.85,298.93" transform="translate(-47.18 -69.29)"/><path class="cls-1" d="M390.71,363.41" transform="translate(-47.18 -69.29)"/><line class="cls-1" x1="252.09" y1="262.67" x2="266" y2="248.89"/><path class="cls-1" d="M297.67,424" transform="translate(-47.18 -69.29)"/><path class="cls-1" d="M559.67,686" transform="translate(-47.18 -69.29)"/><path class="cls-2" d="M305.9,325.39" transform="translate(-47.18 -69.29)"/><polygon class="cls-3" points="516.8 619.1 155.81 258.11 517.08 258.11 516.8 619.1"/><path class="cls-4" d="M47.18,69.29v617L314.27,421.58a61.67,61.67,0,0,0,0-87.58Z" transform="translate(-47.18 -69.29)"/><polygon class="cls-4" points="517.17 2.06 516.9 515.92 258.81 257.98 517.17 2.06"/><circle class="cls-4" cx="298.42" cy="216.33" r="56.54"/></svg>