<svg id="Layer_1" height="512" viewBox="0 0 512 512" width="512" xmlns="http://www.w3.org/2000/svg" data-name="Layer 1"><path d="m471.931 202.616v-55.066a26.021 26.021 0 0 0 -26-25.983h-123.392a6.133 6.133 0 0 0 -.852-.067h-.011a6 6 0 0 0 -.843.067h-130.5a6.133 6.133 0 0 0 -.852-.067h-.011a5.978 5.978 0 0 0 -.842.067h-124.663a26.021 26.021 0 0 0 -26 25.983v55.529a37.239 37.239 0 0 0 -28.312 35.881v133.576a8.634 8.634 0 0 0 8.652 8.6h58.115a8.634 8.634 0 0 0 8.651-8.6v-38.6l341.858.1v38.5a8.634 8.634 0 0 0 8.651 8.6h58.12a8.634 8.634 0 0 0 8.652-8.6v-133.576c-.005-17.976-13.107-32.997-30.421-36.344zm-12-55.066v54.663c-18.578 2.285-33 17.887-33 36.747v5.373l-99.036-.027-.2-110.739h118.236a14.008 14.008 0 0 1 14 13.983zm-264.248 96.72-.2-110.7h120.217l.2 110.736zm-131.718-110.703h119.522l.2 110.7-98.612-.027v-5.28c0-19.566-15.524-35.629-35.106-36.948v-54.462a14.007 14.007 0 0 1 13.996-13.983zm-42.312 235.565v-130.172c0-13.811 11.534-25.046 25.709-25.046s25.709 11.235 25.709 25.046v10.106a6 6 0 0 0 -.116 1.169 6.065 6.065 0 0 0 .116 1.175v117.722zm63.418-47.2v-65.7l103.783.029a6.113 6.113 0 0 0 .839.065h.011a5.925 5.925 0 0 0 .826-.065l130.8.036c.187.018.377.029.569.029h.011c.184 0 .364-.012.544-.028l104.471.028v65.7zm405.276 47.2h-51.418v-130.172c0-13.811 11.533-25.046 25.709-25.046s25.709 11.235 25.709 25.046z"/></svg>