<svg height="449pt" viewBox="0 0 448 449" width="449pt" xmlns="http://www.w3.org/2000/svg"><path d="m349.8125 211.40625h-250.917969c-5.523437 0-10 4.476562-10 10v156.863281c0 5.523438 4.476563 10 10 10h250.917969c5.519531 0 10-4.476562 10-10v-156.863281c0-5.523438-4.480469-10-10-10zm-10 78.433594h-65.542969v-58.441406h65.542969zm-151.082031 0v-58.441406h65.539062v58.433593zm65.539062 20v58.429687h-65.539062v-58.429687zm-85.539062-78.441406v58.433593h-59.835938v-58.433593zm-59.835938 78.433593h59.835938v58.433594h-59.835938zm165.375 58.433594v-58.425781h65.542969v58.429687zm0 0"/><path d="m398.203125 38.324219h-19.835937v-28.324219c0-5.523438-4.476563-10-10-10-5.523438 0-10 4.476562-10 10v28.324219h-262.328126v-28.324219c0-5.523438-4.476562-10-10-10-5.519531 0-10 4.476562-10 10v28.324219h-25.539062c-27.601562.03125-49.96875 22.398437-50 50v310.675781c.03125 27.601562 22.398438 49.96875 50 50h347.699219c27.601562-.03125 49.96875-22.398438 50-50v-310.675781c-.03125-27.601563-22.394531-49.96875-49.996094-50zm-347.699219 20h35c.179688.011719.359375.027343.542969.027343.179687 0 .359375-.019531.539063-.027343h281.238281c.179687.011719.359375.027343.539062.027343.183594 0 .363281-.019531.542969-.027343h29.300781c16.558594.019531 29.980469 13.4375 30 30v58.351562h-407.707031v-58.351562c.019531-16.5625 13.4375-29.980469 30-30zm347.699219 370.675781h-347.703125c-16.5625-.019531-29.980469-13.4375-30-30v-232.324219h407.699219v232.324219c-.015625 16.558594-13.4375 29.980469-29.996094 30zm0 0"/></svg>