<svg xmlns="http://www.w3.org/2000/svg" viewBox="0 0 232.58 238.63"><defs><style>.cls-1{opacity:0.44;}.cls-2{fill:#063;}.cls-2,.cls-3{opacity:0.38;}.cls-3{fill:#efe15d;}</style></defs><g id="Layer_1" data-name="Layer 1" class="cls-1"><circle class="cls-2" cx="20.22" cy="20.22" r="20.22"/><circle class="cls-2" cx="80.9" cy="20.22" r="20.22"/><circle class="cls-2" cx="20.22" cy="80.9" r="20.22"/><circle class="cls-2" cx="80.9" cy="80.9" r="20.22"/><circle class="cls-2" cx="141.57" cy="20.22" r="20.22"/><circle class="cls-2" cx="202.25" cy="20.22" r="20.22"/><circle class="cls-2" cx="141.57" cy="80.9" r="20.22"/><circle class="cls-2" cx="202.25" cy="80.9" r="20.22"/><circle class="cls-2" cx="20.22" cy="141.57" r="20.22"/><circle class="cls-2" cx="80.9" cy="141.57" r="20.22"/><circle class="cls-2" cx="20.22" cy="202.25" r="20.22"/><circle class="cls-2" cx="80.9" cy="202.25" r="20.22"/><circle class="cls-2" cx="141.57" cy="141.57" r="20.22"/><circle class="cls-2" cx="202.25" cy="141.57" r="20.22"/><circle class="cls-2" cx="141.57" cy="202.25" r="20.22"/><circle class="cls-2" cx="202.25" cy="202.25" r="20.22"/></g><g id="Layer_2" data-name="Layer 2"><circle class="cls-3" cx="30.34" cy="36.38" r="20.22"/><circle class="cls-3" cx="91.01" cy="36.38" r="20.22"/><circle class="cls-3" cx="30.34" cy="97.06" r="20.22"/><circle class="cls-3" cx="91.01" cy="97.06" r="20.22"/><circle class="cls-3" cx="151.69" cy="36.38" r="20.22"/><circle class="cls-3" cx="212.36" cy="36.38" r="20.22"/><circle class="cls-3" cx="151.69" cy="97.06" r="20.22"/><circle class="cls-3" cx="212.36" cy="97.06" r="20.22"/><circle class="cls-3" cx="30.34" cy="157.73" r="20.22"/><circle class="cls-3" cx="91.01" cy="157.73" r="20.22"/><circle class="cls-3" cx="30.34" cy="218.4" r="20.22"/><circle class="cls-3" cx="91.01" cy="218.4" r="20.22"/><circle class="cls-3" cx="151.69" cy="157.73" r="20.22"/><circle class="cls-3" cx="212.36" cy="157.73" r="20.22"/><circle class="cls-3" cx="151.69" cy="218.4" r="20.22"/><circle class="cls-3" cx="212.36" cy="218.4" r="20.22"/></g></svg>