<svg xmlns="http://www.w3.org/2000/svg" viewBox="0 0 426.31 331.75"><defs><style>.cls-1{fill:#e30613;}.cls-1,.cls-3{stroke:#fff;stroke-miterlimit:10;stroke-width:4px;}.cls-2{fill:#fff;}.cls-3{fill:#1d1d1b;}</style></defs><g id="Layer_5" data-name="Layer 5"><path class="cls-1" d="M343.22,653.27" transform="translate(-78.29 -185.54)"/></g><g id="Layer_3" data-name="Layer 3"><path class="cls-2" d="M490.64,492.29l13.93-272.55a26.31,26.31,0,0,0-24.93-27.62l-37.14-1.9a26.3,26.3,0,0,0-27.61,24.93L403.17,444.54A26.29,26.29,0,0,0,408.65,462l34.93,45.06C458.53,526.34,489.4,516.65,490.64,492.29Z" transform="translate(-78.29 -185.54)"/><path class="cls-3" d="M586.33,677.54" transform="translate(-78.29 -185.54)"/><path class="cls-2" d="M288.12,360.57l-73.31-138c-4.36-8.21-16.8-5.11-16.8,4.18V387.08a8.92,8.92,0,0,0,8.92,8.92H376a8.92,8.92,0,0,0,8.93-8.92V234.16c0-9.44-12.76-12.41-16.93-3.93L304,360.32A8.91,8.91,0,0,1,288.12,360.57Z" transform="translate(-78.29 -185.54)"/><path class="cls-2" d="M92.25,487.64,78.33,215.08a26.3,26.3,0,0,1,24.92-27.61l37.15-1.9A26.3,26.3,0,0,1,168,210.5l11.72,229.39a26.3,26.3,0,0,1-5.48,17.46l-34.94,45.07C124.36,521.69,93.5,512,92.25,487.64Z" transform="translate(-78.29 -185.54)"/></g><g id="Layer_4" data-name="Layer 4"><path class="cls-2" d="M198.52,409.6H380.34S200.17,486.39,198.52,409.6Z" transform="translate(-78.29 -185.54)"/><path class="cls-3" d="M202.84,484.19" transform="translate(-78.29 -185.54)"/></g></svg>