<svg xmlns="http://www.w3.org/2000/svg" xmlns:xlink="http://www.w3.org/1999/xlink" viewBox="0 0 517.85 619.13"><defs><style>.cls-1{fill:none;stroke:#1d1d1b;stroke-miterlimit:10;}.cls-2{fill:url(#Orange_Yellow);}.cls-3{fill:url(#linear-gradient);}.cls-4{fill:url(#linear-gradient-2);}.cls-5{fill:#fff;}</style><linearGradient id="Orange_Yellow" x1="305.9" y1="325.39" x2="305.9" y2="325.39" gradientUnits="userSpaceOnUse"><stop offset="0" stop-color="#ffef26"/><stop offset="0.02" stop-color="#ffea21"/><stop offset="0.1" stop-color="#fed70f"/><stop offset="0.19" stop-color="#fdcc04"/><stop offset="0.28" stop-color="#fdc800"/><stop offset="0.67" stop-color="#f18f34"/><stop offset="0.89" stop-color="#e95f32"/><stop offset="1" stop-color="#e3312d"/></linearGradient><linearGradient id="linear-gradient" x1="156.49" y1="438.63" x2="517.76" y2="438.63" gradientUnits="userSpaceOnUse"><stop offset="0" stop-color="#009d54"/><stop offset="0" stop-color="#00924b"/><stop offset="0" stop-color="#008741"/><stop offset="0" stop-color="#00833e"/><stop offset="0" stop-color="#a3d3b6"/><stop offset="0" stop-color="#ffed00"/><stop offset="0.09" stop-color="#ffed16"/><stop offset="0.21" stop-color="#ffec2e"/><stop offset="0.28" stop-color="#ffec37"/><stop offset="0.53" stop-color="#abd23a"/><stop offset="1" stop-color="#009e40"/></linearGradient><linearGradient id="linear-gradient-2" x1="237.8" y1="438.63" x2="469.38" y2="438.63" xlink:href="#linear-gradient"/></defs><g id="Layer_1" data-name="Layer 1"><path class="cls-1" d="M455.85,298.93" transform="translate(-47.18 -69.29)"/><path class="cls-1" d="M390.71,363.41" transform="translate(-47.18 -69.29)"/><path class="cls-1" d="M297.67,424" transform="translate(-47.18 -69.29)"/><path class="cls-1" d="M559.67,686" transform="translate(-47.18 -69.29)"/><path class="cls-2" d="M305.9,325.39" transform="translate(-47.18 -69.29)"/><polygon class="cls-3" points="517.49 619.13 156.49 258.13 517.76 258.13 517.49 619.13"/><polygon class="cls-4" points="517.49 619.13 156.49 258.13 517.76 258.13 517.49 619.13"/><path class="cls-5" d="M47.18,69.29v617L314.27,421.58a61.67,61.67,0,0,0,0-87.58Z" transform="translate(-47.18 -69.29)"/><polygon class="cls-5" points="517.85 1.45 517.57 515.32 259.49 257.37 517.85 1.45"/><circle class="cls-5" cx="298.43" cy="217.63" r="56.54"/></g></svg>