<svg xmlns="http://www.w3.org/2000/svg" viewBox="0 0 431.79 362.41">
  <defs>
    <style>
      .cls-1 {
        fill: #1d1d1b;
        stroke: #fff;
        stroke-miterlimit: 10;
        stroke-width: 4px;
      }
    </style>
  </defs>
  <g id="Layer_3" data-name="Layer 3">
    <path class="cls-1"
      d="M488.6,532.35l16.73-327.48a11.42,11.42,0,0,0-10.83-12l-66.86-3.41a11.41,11.41,0,0,0-12,10.82L402.89,450.06a11.39,11.39,0,0,0,2.38,7.58l62.89,81.12A11.42,11.42,0,0,0,488.6,532.35Z"
      transform="translate(-75.55 -182.8)" />
    <path class="cls-1" d="M586.33,677.54" transform="translate(-75.55 -182.8)" />
    <path class="cls-1"
      d="M288.12,360.57l-73.31-138c-4.36-8.21-16.8-5.11-16.8,4.18V387.08a8.92,8.92,0,0,0,8.92,8.92H376a8.92,8.92,0,0,0,8.93-8.92V234.16c0-9.44-12.76-12.41-16.93-3.93L304,360.32A8.91,8.91,0,0,1,288.12,360.57Z"
      transform="translate(-75.55 -182.8)" />
    <path class="cls-1"
      d="M94.3,527.69,77.57,200.22a11.42,11.42,0,0,1,10.82-12l66.87-3.42a11.43,11.43,0,0,1,12,10.83L180,445.4a11.4,11.4,0,0,1-2.38,7.59l-62.89,81.12A11.43,11.43,0,0,1,94.3,527.69Z"
      transform="translate(-75.55 -182.8)" />
  </g>
  <g id="Layer_4" data-name="Layer 4">
    <path class="cls-1" d="M201.17,403.7l43.59,27.95c42.95,18,62-22.22,94.66-20.82a15.07,15.07,0,0,0,2.93-.14l42.54-7"
      transform="translate(-75.55 -182.8)" />
    <path class="cls-1" d="M199.63,402.93H391.76S201.38,479.72,199.63,402.93Z" transform="translate(-75.55 -182.8)" />
    <path class="cls-1" d="M202.84,484.19" transform="translate(-75.55 -182.8)" />
  </g>
</svg>