<?xml version="1.0" encoding="utf-8"?>
<!-- Generator: Adobe Illustrator 24.2.3, SVG Export Plug-In . SVG Version: 6.00 Build 0)  -->
<svg version="1.1" xmlns="http://www.w3.org/2000/svg" xmlns:xlink="http://www.w3.org/1999/xlink" x="0px" y="0px"
	 viewBox="0 0 445.1 445.1" style="enable-background:new 0 0 445.1 445.1;" xml:space="preserve">
<style type="text/css">
	.st0{fill:none;stroke:#FFFFFF;stroke-width:17;stroke-miterlimit:10;}
	.st1{fill:#FFFFFF;stroke:#FFFFFF;stroke-width:17;stroke-miterlimit:10;}
	.st2{fill:#FFFFFF;stroke:#FFFFFF;stroke-width:4;stroke-miterlimit:10;}
	.st3{display:none;}
	.st4{display:inline;fill:none;stroke:#1047F9;stroke-width:17;stroke-miterlimit:10;}
</style>
<g id="Layer_1">
	<circle class="st0" cx="222.5" cy="222.5" r="214"/>
	<circle class="st0" cx="222.5" cy="222.5" r="214"/>
	<path class="st1" d="M138.9,345.2"/>
	<path class="st2" d="M102.3,308.4"/>
</g>
<g id="Layer_2" class="st3">
	<path class="st4" d="M139.3,334.3V123.8c0-1.4,1.1-2.5,2.5-2.5c0.8,0,1.5,0.3,2,0.9l77.2,94c0.9,1.1,2.5,1.2,3.6,0.3
		c0.1-0.1,0.2-0.2,0.3-0.3l77.4-94.1c0.9-1.1,2.5-1.2,3.5-0.4c0.6,0.5,0.9,1.2,0.9,2v210.6"/>
</g>
<g id="Layer_3">
	<path class="st0" d="M238.5,288.8l-67.8-164.4c-1.2-3-5.4-2.9-6.5,0.1L94.9,311.2c-0.9,2.4,0.9,4.9,3.4,4.8l72.2-1.3"/>
	<path class="st0" d="M218.9,241.4l44.4-119.3c1.1-3,5.3-3.1,6.5-0.1l81,195.4"/>
</g>
</svg>
