<?xml version="1.0" standalone="no"?>
<!DOCTYPE svg PUBLIC "-//W3C//DTD SVG 20010904//EN"
 "http://www.w3.org/TR/2001/REC-SVG-20010904/DTD/svg10.dtd">
<svg version="1.0" xmlns="http://www.w3.org/2000/svg"
 width="700.000000pt" height="700.000000pt" viewBox="0 0 700.000000 700.000000"
 preserveAspectRatio="xMidYMid meet">
<metadata>
Created by potrace 1.11, written by Peter Selinger 2001-2013
</metadata>
<g transform="translate(0.000000,700.000000) scale(0.100000,-0.100000)"
fill="#000000" stroke="none">
<path d="M3269 6996 c-2 -2 -42 -7 -89 -10 -47 -3 -94 -8 -105 -10 -11 -2 -47
-7 -80 -12 -33 -4 -62 -8 -65 -9 -3 0 -27 -5 -55 -9 -84 -13 -254 -54 -365
-86 -937 -277 -1723 -940 -2152 -1815 -176 -360 -280 -707 -335 -1120 -19
-141 -25 -585 -10 -745 101 -1115 736 -2119 1704 -2693 450 -267 975 -435
1478 -474 127 -10 514 -10 623 -1 804 72 1575 433 2151 1008 529 529 861 1172
986 1915 34 199 40 296 40 590 -1 271 -9 372 -51 605 -175 966 -764 1830
-1602 2349 -46 28 -86 51 -88 51 -2 0 -23 12 -46 26 -124 79 -413 205 -625
274 -123 40 -363 101 -453 115 -25 4 -54 9 -65 11 -11 3 -56 9 -100 14 -44 6
-96 13 -115 16 -42 6 -574 16 -581 10z m556 -280 c22 -4 78 -11 125 -17 647
-82 1307 -404 1790 -873 395 -385 666 -817 834 -1331 67 -206 129 -511 144
-710 10 -123 9 -480 -1 -590 -51 -572 -277 -1155 -630 -1627 -54 -73 -107
-140 -116 -149 -9 -9 -52 -57 -96 -105 -484 -536 -1161 -896 -1900 -1009 -169
-26 -230 -29 -465 -30 -260 0 -367 8 -545 39 -125 23 -164 31 -250 52 -417
105 -808 292 -1149 548 -413 311 -732 693 -961 1153 -90 181 -154 348 -224
588 -32 107 -79 365 -98 530 -10 90 -10 505 0 614 100 1103 774 2090 1765
2586 188 94 401 178 567 224 65 18 287 69 330 75 100 16 176 26 250 32 44 4
82 8 84 10 6 6 503 -4 546 -10z"/>
<path d="M2177 5155 c-44 -15 -91 -52 -109 -85 -11 -21 -13 -321 -16 -1707
l-2 -1683 135 0 135 0 0 1408 c0 774 0 1458 0 1521 0 135 -18 142 150 -64 62
-77 136 -167 164 -200 28 -34 65 -78 81 -99 17 -21 35 -44 40 -50 10 -10 136
-163 162 -196 57 -71 422 -513 449 -543 55 -62 129 -82 197 -53 46 19 55 29
237 251 91 110 167 202 170 205 3 3 32 39 65 80 33 41 65 80 70 86 6 6 55 66
110 133 55 68 110 135 123 150 12 14 93 112 180 218 86 105 159 190 162 188 3
-2 5 -685 5 -1519 l0 -1516 133 0 c72 0 132 3 133 8 5 63 0 3335 -6 3352 -35
116 -189 162 -277 83 -11 -10 -122 -142 -247 -293 -124 -151 -233 -284 -243
-295 -9 -11 -116 -141 -238 -290 -122 -148 -234 -284 -249 -300 -14 -17 -53
-64 -85 -105 -33 -41 -63 -77 -66 -80 -3 -3 -13 -15 -22 -28 -15 -22 -16 -21
-119 104 -57 70 -120 146 -139 169 -19 22 -51 61 -70 85 -19 24 -40 48 -45 54
-6 6 -119 144 -252 306 -227 278 -478 583 -526 641 -50 59 -128 85 -190 64z"/>
</g>
</svg>
