<?xml version="1.0" standalone="no"?>
<!DOCTYPE svg PUBLIC "-//W3C//DTD SVG 20010904//EN"
 "http://www.w3.org/TR/2001/REC-SVG-20010904/DTD/svg10.dtd">
<svg version="1.0" xmlns="http://www.w3.org/2000/svg"
 width="700.000000pt" height="700.000000pt" viewBox="0 0 700.000000 700.000000"
 preserveAspectRatio="xMidYMid meet">
<metadata>
Created by potrace 1.11, written by Peter Selinger 2001-2013
</metadata>
<g transform="translate(0.000000,700.000000) scale(0.100000,-0.100000)"
fill="#000000" stroke="none">
<path d="M3200 6990 c-406 -42 -722 -120 -1060 -262 -942 -397 -1684 -1213
-1981 -2176 -50 -162 -105 -403 -123 -532 -27 -202 -31 -262 -31 -495 0 -271
5 -360 31 -535 85 -577 308 -1112 663 -1590 64 -86 70 -93 177 -215 103 -118
197 -212 314 -314 98 -86 336 -268 380 -291 14 -7 27 -16 30 -19 13 -17 230
-139 355 -201 416 -203 805 -310 1275 -350 98 -8 582 -6 597 3 4 2 38 7 74 11
186 17 471 79 694 152 949 311 1731 1029 2124 1950 88 208 186 524 214 690 3
16 12 70 20 119 9 50 18 113 22 140 3 28 8 66 11 85 12 78 11 549 -1 675 -101
1014 -621 1916 -1448 2512 -431 310 -912 511 -1462 608 -16 3 -66 10 -110 15
-44 6 -96 13 -115 16 -58 9 -570 12 -650 4z m625 -274 c22 -4 78 -11 125 -17
316 -40 681 -153 985 -306 225 -112 507 -297 650 -425 17 -15 41 -36 55 -48
79 -67 253 -247 336 -345 422 -502 688 -1149 742 -1804 12 -153 6 -517 -12
-656 -79 -616 -306 -1153 -692 -1640 -116 -146 -371 -398 -514 -509 -453 -350
-928 -559 -1474 -651 -200 -33 -274 -39 -511 -39 -242 -1 -344 6 -545 40 -539
88 -1057 319 -1490 664 -138 109 -414 388 -516 520 -390 504 -610 1047 -681
1685 -10 90 -10 505 0 613 115 1268 977 2357 2187 2765 127 43 151 49 310 86
265 62 443 79 755 76 138 -2 268 -6 290 -9z"/>
<path d="M4148 5250 c-63 -19 -101 -66 -136 -165 -11 -33 -127 -357 -257 -720
-131 -363 -248 -693 -262 -733 -14 -41 -29 -70 -33 -65 -4 4 -58 150 -119 323
-62 173 -116 324 -121 335 -4 11 -20 54 -33 95 -14 42 -30 87 -36 100 -6 14
-47 129 -92 255 -109 309 -147 413 -167 459 -32 76 -98 116 -180 112 -59 -4
-104 -29 -136 -76 -14 -19 -83 -201 -155 -405 -73 -203 -138 -386 -145 -405
-8 -19 -30 -80 -49 -135 -20 -55 -56 -156 -80 -225 -45 -125 -432 -1208 -513
-1435 -23 -66 -66 -185 -94 -265 -80 -222 -88 -251 -83 -295 9 -76 58 -138
129 -162 21 -7 217 -11 583 -11 l551 0 0 134 0 134 -486 0 c-285 0 -483 4
-480 9 6 10 72 190 111 306 13 39 79 221 145 405 67 184 122 340 124 345 1 6
18 55 38 110 20 55 150 417 288 805 138 387 255 711 259 718 5 8 26 -37 55
-120 26 -73 67 -187 91 -253 24 -66 80 -223 125 -350 45 -126 102 -286 127
-355 43 -119 70 -193 197 -555 31 -88 61 -169 65 -180 9 -21 20 -50 152 -420
45 -126 83 -232 85 -234 6 -7 249 86 247 95 -2 9 -209 594 -223 629 -4 11 -13
33 -19 48 -6 15 -11 37 -11 47 0 17 75 237 100 295 5 11 34 92 65 180 98 277
149 420 275 770 67 187 129 359 137 383 9 24 19 40 23 35 4 -4 19 -44 34 -88
35 -99 162 -456 183 -510 8 -22 39 -110 69 -195 30 -85 61 -171 69 -190 16
-39 91 -248 137 -380 16 -47 33 -94 38 -105 5 -11 20 -54 35 -95 14 -41 60
-169 102 -285 134 -374 149 -417 213 -595 34 -96 68 -189 76 -207 8 -17 14
-34 14 -37 0 -7 101 -289 105 -294 1 -1 58 17 126 42 79 28 123 49 121 57 -4
18 -281 790 -292 814 -5 11 -22 58 -38 105 -17 47 -71 198 -120 335 -50 138
-122 340 -162 450 -39 110 -80 223 -90 250 -10 28 -118 326 -239 663 -128 356
-229 624 -243 641 -46 58 -129 84 -200 61z"/>
</g>
</svg>
